# xmcd
#
# Track frame offsets: 
#        150
#        16930
#        29138
#        53970
#        67547
#        80880
#        97324
#        113336
#        127263
#        143925
#        163963
#        186139
#        197014
#        216465
#        227707
#        243443
#        259921
#        274185
#        289159
#
# Disc length: 4076 seconds
#
# Revision: 0
# Processed by: cddbd v1.5.2PL0 Copyright (c) Steve Scherf et al.
# Submitted via: ExactAudioCopy v0.99pb5
#
DISCID=2a0fea13
DTITLE=Various Artist - chorzy na bluesa
DYEAR=1900
DGENRE=Blues
TTITLE0=Free Blues Band - chory na bluesa
TTITLE1=Klusem z Bluesem - klapa
TTITLE2=Formacja Fru - wciaz nie wiem nic
TTITLE3=Bart Leczycki - meisterklasse boogie
TTITLE4=Proud Mary - wspaniale dziewczyny
TTITLE5=Marzena Tranowska - milosc najwazniejsza
TTITLE6=Tipsy Drivers - lato 1993
TTITLE7=Michal Kielak - katarzyna boogie
TTITLE8=Patchwork - hotelowy blues
TTITLE9=Magda Piskorczyk - nie pytaj ktora godzina
TTITLE10=Queen Bee - zbyt pozno
TTITLE11=Jacek Spruch - medley rok 2000/100km
TTITLE12=Piotr Lubertowicz and Tomek Kaminski - ciezki dzien
TTITLE13=Anika - nieznajomy przyjaciel
TTITLE14=Terraplane - czarnobialy film
TTITLE15=Rubens Band - piosenka bardzo optymistyczna
TTITLE16=Szulerzy - blues mieszka w polsce 
TTITLE17=Family Style - jack daniel
TTITLE18=Trio Con Brio - blues dla zmartwionych
EXTD=
EXTT0=
EXTT1=
EXTT2=
EXTT3=
EXTT4=
EXTT5=
EXTT6=
EXTT7=
EXTT8=
EXTT9=
EXTT10=
EXTT11=
EXTT12=
EXTT13=
EXTT14=
EXTT15=
EXTT16=
EXTT17=
EXTT18=
PLAYORDER=
